<svg xmlns="http://www.w3.org/2000/svg" width="960" height="540" viewBox="0 0 960 540" role="img" aria-label="OpenSpec Delivery workflow diagram">
  <defs>
    <marker id="arrow" viewBox="0 0 10 10" refX="8" refY="5" markerWidth="7" markerHeight="7" orient="auto-start-reverse">
      <path d="M 0 0 L 10 5 L 0 10 z" fill="#475569" />
    </marker>
    <style>
      svg {
        font-family: Inter, ui-sans-serif, system-ui, -apple-system, BlinkMacSystemFont, "Segoe UI", sans-serif;
        background: #f8fafc;
      }
      .title { fill: #0f172a; font-size: 30px; font-weight: 750; }
      .subtitle { fill: #475569; font-size: 14px; }
      .label { fill: #0f172a; font-size: 15px; font-weight: 700; }
      .body { fill: #475569; font-size: 12px; }
      .lane-title { fill: #334155; font-size: 12px; font-weight: 700; letter-spacing: 0.08em; text-transform: uppercase; }
      .badge { fill: #ffffff; font-size: 12px; font-weight: 750; }
      .arrow { stroke: #475569; stroke-width: 2.2; fill: none; marker-end: url(#arrow); }
      .soft-arrow { stroke: #94a3b8; stroke-width: 1.8; fill: none; marker-end: url(#arrow); }
      .card { fill: #ffffff; stroke-width: 1.5; rx: 12; }
      .call { fill: #0f172a; stroke: #111827; }
      .openspec { stroke: #2563eb; }
      .gate { stroke: #d97706; }
      .superpowers { stroke: #059669; }
      .build { stroke: #7c3aed; }
      .evidence { stroke: #e11d48; }
      .archive { stroke: #0891b2; }
    </style>
  </defs>

  <rect x="0" y="0" width="960" height="540" fill="#f8fafc" />
  <rect x="36" y="34" width="888" height="472" rx="24" fill="#ffffff" stroke="#e2e8f0" />

  <text x="70" y="82" class="title">OpenSpec Delivery Omniskill Workflow</text>
  <text x="72" y="110" class="subtitle">One entry skill coordinates proposal, design, planning, TDD implementation, verification, and archive.</text>

  <rect x="70" y="140" width="820" height="54" rx="14" class="call" />
  <text x="98" y="174" class="badge">$openspec-delivery implement this OpenSpec change</text>
  <text x="624" y="174" class="badge">one call, full workflow</text>

  <text x="78" y="230" class="lane-title">OpenSpec control points</text>
  <text x="78" y="383" class="lane-title">Delivery execution</text>

  <rect x="70" y="250" width="180" height="94" class="card openspec" />
  <text x="94" y="284" class="label">1. Propose</text>
  <text x="94" y="309" class="body">/opsx:propose</text>
  <text x="94" y="329" class="body">proposal.md, specs, tasks</text>

  <rect x="296" y="250" width="180" height="94" class="card gate" />
  <text x="320" y="284" class="label">2. Review Gate</text>
  <text x="320" y="309" class="body">Human owner approves</text>
  <text x="320" y="329" class="body">scope before build plan</text>

  <rect x="522" y="250" width="180" height="94" class="card archive" />
  <text x="546" y="284" class="label">7. Archive</text>
  <text x="546" y="309" class="body">/opsx:archive</text>
  <text x="546" y="329" class="body">specs and knowledge updated</text>

  <rect x="70" y="402" width="180" height="94" class="card superpowers" />
  <text x="94" y="436" class="label">3. Deepen Design</text>
  <text x="94" y="461" class="body">superpowers:brainstorming</text>
  <text x="94" y="481" class="body">approved technical shape</text>

  <rect x="296" y="402" width="180" height="94" class="card superpowers" />
  <text x="320" y="436" class="label">4. Write Plan</text>
  <text x="320" y="461" class="body">superpowers:writing-plans</text>
  <text x="320" y="481" class="body">small executable tasks</text>

  <rect x="522" y="402" width="180" height="94" class="card build" />
  <text x="546" y="436" class="label">5. Build With TDD</text>
  <text x="546" y="461" class="body">mattpocock:tdd</text>
  <text x="546" y="481" class="body">specs stay in context</text>

  <rect x="748" y="402" width="142" height="94" class="card evidence" />
  <text x="772" y="436" class="label">6. Verify</text>
  <text x="772" y="461" class="body">superpowers:verification</text>
  <text x="772" y="481" class="body">evidence before claim</text>

  <path d="M 250 297 H 286" class="arrow" />
  <path d="M 386 344 V 392" class="soft-arrow" />
  <path d="M 250 449 H 286" class="arrow" />
  <path d="M 476 449 H 512" class="arrow" />
  <path d="M 702 449 H 738" class="arrow" />
  <path d="M 819 402 V 297 H 712" class="arrow" />
  <path d="M 160 344 V 392" class="soft-arrow" />

  <rect x="724" y="250" width="166" height="94" rx="12" fill="#f1f5f9" stroke="#cbd5e1" stroke-width="1.5" />
  <text x="748" y="284" class="label">Quality Gates</text>
  <text x="748" y="309" class="body">No skipped approvals</text>
  <text x="748" y="329" class="body">No archive without owner</text>
</svg>
